<svg width="25" height="24" viewBox="0 0 25 24" fill="none" xmlns="http://www.w3.org/2000/svg">
<path fill-rule="evenodd" clip-rule="evenodd" d="M11.8325 1.89779C11.8324 1.89788 11.8327 1.8977 11.8325 1.89779L3.83366 5.89724L3.83255 5.89779C3.32288 6.15105 3.00045 6.67092 3.00005 7.24003V16.7635C2.99608 17.3334 3.31541 17.8563 3.82416 18.1131C3.82387 18.1129 3.82445 18.1132 3.82416 18.1131L11.8237 22.1128C12.2462 22.3242 12.7438 22.3243 13.1663 22.1129L21.1664 18.1128L21.1675 18.1123C21.6773 17.859 21.9997 17.339 22 16.7698V7.24029C21.9997 6.67109 21.6773 6.15109 21.1675 5.89779L21.1664 5.89724L13.1675 1.89779C13.1674 1.8977 13.1677 1.89789 13.1675 1.89779C12.7474 1.68923 12.2527 1.68922 11.8325 1.89779ZM11.3875 1.00226C12.0883 0.654031 12.9118 0.654031 13.6125 1.00226L13.6137 1.00281L21.6125 5.00226C21.6124 5.00218 21.6127 5.00234 21.6125 5.00226C22.4618 5.42451 22.9995 6.29126 23 7.23976V16.77C22.9995 17.7185 22.4624 18.5852 21.6132 19.0075C21.613 19.0076 21.6134 19.0074 21.6132 19.0075L13.6138 23.0072C13.6138 23.0072 13.6138 23.0071 13.6138 23.0072C12.9097 23.3595 12.0806 23.3595 11.3764 23.0072C11.3764 23.0072 11.3765 23.0073 11.3764 23.0072L3.37644 19.0072L3.37506 19.0065C2.52685 18.5792 1.99413 17.7081 2.00005 16.7584V7.24003C2.00055 6.29157 2.53772 5.42483 3.38695 5.00256C3.38675 5.00266 3.38715 5.00246 3.38695 5.00256L11.3864 1.00281L11.3875 1.00226Z" fill="#414141"/>
<path fill-rule="evenodd" clip-rule="evenodd" d="M2.37321 5.93641C2.4967 5.68943 2.79704 5.58931 3.04403 5.71281L12.5004 10.441L21.9568 5.71281C22.2038 5.58931 22.5041 5.68943 22.6276 5.93641C22.7511 6.1834 22.651 6.48374 22.404 6.60724L12.724 11.4472C12.5833 11.5176 12.4176 11.5176 12.2768 11.4472L2.59682 6.60724C2.34983 6.48374 2.24971 6.1834 2.37321 5.93641Z" fill="#414141"/>
<path fill-rule="evenodd" clip-rule="evenodd" d="M12.5 10.5C12.7761 10.5 13 10.7239 13 11V22.76C13 23.0361 12.7761 23.26 12.5 23.26C12.2239 23.26 12 23.0361 12 22.76V11C12 10.7239 12.2239 10.5 12.5 10.5Z" fill="#414141"/>
<path fill-rule="evenodd" clip-rule="evenodd" d="M7.0529 3.27638C7.17639 3.02939 7.47673 2.92928 7.72372 3.05277L17.7237 8.05277C17.9707 8.17627 18.0708 8.4766 17.9473 8.72359C17.8238 8.97058 17.5235 9.0707 17.2765 8.9472L7.2765 3.9472C7.02951 3.82371 6.9294 3.52337 7.0529 3.27638Z" fill="#414141"/>
</svg>
